PathFileType	4	(X/Y/Z)	C:\Users\Basilio\Documents\Thesis Gigler\squatting_fais\c3dfiles\075\SJ_pre3\markers_experimental.trc
DataRate	CameraRate	NumFrames	NumMarkers	Units	OrigDataRate	OrigDataStartFrame	OrigNumFrames
200.000000	200.000000	4	61	mm	200.000000	624	1664
Frame#	Time	FHD			LBHD			RBHD			C7			T10			CLAV			LSHO			LUUPA			LMUPA			LDUPA			LLEP			LMEP			LRAD			LUL			LRFIN			RSHO			RUPA1			RMUPA			RDUPA			RLEP			RMEP			RRAD			RUL			RUFIN			LASI			RASI			USACR			LSACR			RSACR			LTHI1			LTHI2			LTHI3			LTHI4			LLFC			LMFC			LTIB1			LTIB2			LTIB3			LTIB4			LLMAL			LMMAL			LHEE			LMT1			LMT2			LMT5			RTHI			RTHI2			RTHI3			RTHI4			RLFC			RMFC			RTIB1			RTIB2			RTIB3			RTIB4			RLMAL			RMMAL			RHEE			RMT1			RMT2			RMT5			
		X1	Y1	Z1	X2	Y2	Z2	X3	Y3	Z3	X4	Y4	Z4	X5	Y5	Z5	X6	Y6	Z6	X7	Y7	Z7	X8	Y8	Z8	X9	Y9	Z9	X10	Y10	Z10	X11	Y11	Z11	X12	Y12	Z12	X13	Y13	Z13	X14	Y14	Z14	X15	Y15	Z15	X16	Y16	Z16	X17	Y17	Z17	X18	Y18	Z18	X19	Y19	Z19	X20	Y20	Z20	X21	Y21	Z21	X22	Y22	Z22	X23	Y23	Z23	X24	Y24	Z24	X25	Y25	Z25	X26	Y26	Z26	X27	Y27	Z27	X28	Y28	Z28	X29	Y29	Z29	X30	Y30	Z30	X31	Y31	Z31	X32	Y32	Z32	X33	Y33	Z33	X34	Y34	Z34	X35	Y35	Z35	X36	Y36	Z36	X37	Y37	Z37	X38	Y38	Z38	X39	Y39	Z39	X40	Y40	Z40	X41	Y41	Z41	X42	Y42	Z42	X43	Y43	Z43	X44	Y44	Z44	X45	Y45	Z45	X46	Y46	Z46	X47	Y47	Z47	X48	Y48	Z48	X49	Y49	Z49	X50	Y50	Z50	X51	Y51	Z51	X52	Y52	Z52	X53	Y53	Z53	X54	Y54	Z54	X55	Y55	Z55	X56	Y56	Z56	X57	Y57	Z57	X58	Y58	Z58	X59	Y59	Z59	X60	Y60	Z60	X61	Y61	Z61	

625	3.12	59.51751708984376	1190.9912109375	-887.1218261718752	-106.2623672485352	1109.943725585938	-969.8157348632815	-66.59421539306642	1125.610595703125	-812.5405273437502	-186.312728881836	1046.874267578125	-912.9165649414065	-413.0559082031251	827.635925292969	-913.3074951171877	-104.5902175903321	915.3149414062502	-910.221862792969	-94.20346832275392	966.723327636719	-1060.739135742188	-195.6399536132813	876.1712646484377	-1241.289794921875	-201.8576049804688	828.7188110351565	-1227.172973632813	-230.9455108642579	828.7644653320315	-1280.369018554688	-287.4512329101563	764.6143798828126	-1304.481323242188	-354.1313476562501	823.2187500000002	-1280.1796875	-444.9183044433595	661.8614501953126	-1133.728759765625	-413.7352294921876	599.6481323242189	-1163.959716796875	-410.0820312500001	656.6962280273439	-1081.061767578125	-106.2204284667969	968.887145996094	-756.2073974609376	-224.9467163085938	905.592224121094	-586.4501342773439	-235.3116760253907	856.0034790039065	-589.1255493164064	-270.7080688476563	872.6875000000002	-542.9821777343751	-320.7853088378907	825.290954589844	-513.7055664062501	-395.0203552246095	862.9341430664065	-538.1489257812501	-410.8788146972657	626.7205200195314	-652.3218383789064	-443.2802734375001	677.3886718750001	-699.3529052734376	-397.5122985839845	667.3402709960939	-746.3580322265626	-391.1833496093751	615.9072875976564	-1026.87548828125	-391.110565185547	639.6408081054689	-788.9763793945315	-497.288787841797	745.3837280273439	-913.382019042969	-523.3198242187501	724.0899658203126	-938.6973266601565	-522.1092529296876	726.6004028320314	-882.7845458984377	-373.3601989746094	529.6726074218751	-1133.390258789063	-291.7557067871094	518.6523437500001	-1145.532592773438	-269.5318603515626	554.2870483398439	-1117.176147460938	-260.1837768554688	468.7844238281251	-1156.0703125	-181.9793701171875	410.1580200195314	-1153.884521484375	-137.7159576416016	402.042449951172	-1030.733764648438	-149.1675720214844	286.1035461425782	-1111.704223632813	-223.9720764160157	271.0934753417969	-1156.40966796875	-192.4135131835938	252.5362548828126	-1135.33642578125	-232.6485137939454	188.6687316894532	-1101.200439453125	-367.2750854492188	91.67569732666017	-1107.59423828125	-325.8637084960938	100.2281723022461	-1026.620239257813	-421.2532653808595	50.29384613037111	-1053.392333984375	-208.7393341064454	52.99231719970705	-1071.9384765625	-216.829330444336	58.96324157714845	-1120.01123046875	-263.5384216308594	42.41741180419923	-1165.73388671875	-410.1950683593751	549.0973510742189	-692.8150634765626	-345.1621398925782	556.4302978515626	-690.6237792968751	-334.1596679687501	583.4533691406251	-710.6992797851564	-289.3237609863282	495.8254394531251	-677.8818359375001	-174.6951141357422	413.8115539550782	-693.0159301757814	-140.9608306884766	410.9344482421876	-810.8187255859377	-160.5523223876953	274.7011413574219	-759.0955200195314	-242.9481658935547	225.6485443115235	-704.1472778320314	-213.0331420898438	209.6567382812501	-736.2265625000001	-239.446029663086	174.3082733154297	-777.052429199219	-354.2065429687501	89.55773925781251	-743.0421142578126	-314.1607055664063	105.4738082885742	-823.8537597656252	-406.6453247070314	50.70124816894533	-800.8142089843752	-196.797348022461	59.1211395263672	-773.219665527344	-205.698959350586	59.87205886840822	-732.3915405273439	-246.5549621582032	36.18882369995118	-684.9911499023439	
626	3.125	59.174129486084	1191.423095703125	-887.079528808594	-106.4232940673828	1109.990966796875	-969.798034667969	-66.57688140869142	1126.126708984375	-813.090515136719	-186.1966247558594	1046.92724609375	-912.9914550781252	-412.9456787109376	827.7374267578127	-913.322692871094	-104.6368026733399	915.654479980469	-910.2544555664065	-94.28565216064455	966.910095214844	-1060.742797851563	-195.3565673828126	876.089538574219	-1241.254028320313	-201.7014312744141	828.6245117187502	-1227.192504882813	-231.0278320312501	828.791442871094	-1280.434936523438	-287.4375610351563	764.6906738281251	-1304.540405273438	-354.1055908203126	823.287536621094	-1280.234130859375	-444.7718200683595	661.9833374023439	-1133.722778320313	-413.7222900390626	599.7297973632814	-1163.96240234375	-410.1419982910157	656.7462158203126	-1080.990112304688	-106.1432723999024	968.9608154296877	-756.1994018554689	-224.8693237304688	905.6575317382815	-586.4732055664064	-235.2362976074219	856.070495605469	-589.1432495117189	-270.6459655761719	872.7196044921877	-542.9640502929689	-320.6880798339844	825.3311157226565	-513.6728515625001	-394.9110107421876	863.0286865234377	-538.1336669921876	-410.7886962890626	626.7965087890626	-652.3297729492189	-443.0757446289064	677.4845581054689	-699.3399658203126	-397.4556579589845	667.4635620117189	-746.3175048828126	-391.2986145019532	615.8801879882814	-1026.953247070313	-391.1860656738282	639.7030029296876	-789.1495361328127	-497.2600097656251	745.4268798828126	-913.3704833984377	-523.2708129882814	724.1939086914064	-938.6859130859377	-522.0464477539064	726.7243652343751	-882.8047485351565	-373.2954101562501	529.6777343750001	-1133.338989257813	-291.1317443847657	518.6235961914064	-1145.291137695313	-269.3762207031251	554.3346557617189	-1117.122192382813	-260.2164611816407	468.764862060547	-1156.085815429688	-182.0189819335938	410.1254272460939	-1153.923095703125	-137.7486419677735	402.1191406250001	-1030.790771484375	-149.0267944335938	286.0662536621094	-1111.505615234375	-224.1352539062501	271.1218261718751	-1156.482055664063	-192.4392547607422	252.5317687988282	-1135.331420898438	-232.6743927001954	188.7026824951172	-1101.255493164063	-367.3795166015626	91.66259765625001	-1107.593627929688	-325.8593444824219	100.2581100463867	-1026.61376953125	-421.2425537109376	50.26795196533205	-1053.384521484375	-208.7701263427735	52.99129104614259	-1071.937377929688	-216.7533416748047	58.96511840820314	-1119.98876953125	-263.5516357421876	42.41625976562501	-1165.725708007813	-410.1670532226564	549.2023315429689	-692.8140258789064	-345.1152038574219	556.4755859375001	-690.5947875976564	-334.0948791503907	583.5658569335939	-710.6697998046876	-289.2494812011719	495.8878173828126	-677.8671875000001	-174.7007293701172	413.8447570800782	-693.0108642578126	-141.0483856201172	411.0547790527345	-810.8313598632815	-160.5099792480469	274.6775817871094	-759.0791625976564	-242.9631652832032	225.6649322509766	-704.0892944335939	-213.0319824218751	209.647933959961	-736.2473754882814	-240.8713989257813	174.4240417480469	-777.5675048828127	-354.2043151855469	89.53328704833986	-743.0326538085939	-314.2239379882813	105.4339065551758	-823.8726806640627	-406.650604248047	50.711727142334	-800.8025512695315	-196.8275146484376	59.11587142944337	-773.2424316406252	-205.6809234619141	59.87508010864259	-732.3623046875001	-246.5524597167969	36.15928649902344	-684.9840698242189	
627	3.13	58.83902740478517	1191.880737304688	-887.0603027343752	-106.4805145263672	1110.320434570313	-969.8850708007815	-67.02479553222658	1125.820678710938	-813.5008544921877	-186.1658782958985	1047.033081054688	-913.0638427734377	-412.9242553710939	827.7843017578127	-913.2908325195315	-104.4846801757813	915.5847167968752	-910.284851074219	-93.99394989013673	966.6496582031252	-1060.82568359375	-195.3546905517579	876.0899658203127	-1241.366455078125	-201.6709136962891	828.669860839844	-1227.169677734375	-230.9358367919922	828.7327270507815	-1280.485107421875	-287.4395446777344	764.6637573242189	-1304.514770507813	-354.0422363281251	823.2719726562502	-1280.29345703125	-444.7426757812501	662.0894775390626	-1133.687866210938	-413.7739868164064	599.8355102539064	-1163.9462890625	-410.0877075195314	656.8471679687501	-1081.002807617188	-106.0609512329102	969.0032958984377	-756.2964477539064	-224.7855072021485	905.7337646484377	-586.4432373046876	-235.1581573486329	856.1287841796877	-589.1720581054689	-270.5482177734376	872.7612915039065	-542.9870605468751	-320.5773620605469	825.4128417968752	-513.6806030273439	-394.8406372070314	863.1038818359377	-538.1180419921876	-411.4129638671876	626.3604736328126	-653.0059204101564	-443.0440368652345	677.6348876953126	-699.3574218750001	-397.4127502441407	667.5661621093751	-746.3246459960939	-391.0606994628907	616.0795288085939	-1026.890991210938	-391.0405578613282	639.8339233398439	-789.0372314453127	-497.156219482422	745.5965576171876	-913.3560791015627	-523.2395019531251	724.3060913085939	-938.695983886719	-521.9975585937501	726.7760620117189	-882.7639770507815	-373.3828430175782	529.8700561523439	-1133.341674804688	-291.8143005371094	518.8543090820314	-1145.508056640625	-269.4953308105469	554.4262695312501	-1117.20703125	-260.2228698730469	468.8210449218751	-1156.060546875	-182.137924194336	410.1737365722657	-1153.977661132813	-137.7474517822266	402.1211547851564	-1030.790283203125	-149.2788696289063	286.0978393554688	-1111.733276367188	-224.3909301757813	271.2401428222657	-1156.596069335938	-192.5671844482422	252.4445190429688	-1135.396240234375	-232.6749877929688	188.6952514648438	-1101.2529296875	-367.4449462890626	91.6963577270508	-1107.600830078125	-325.8606872558594	100.2346115112305	-1026.617431640625	-421.2525634765626	50.25390625000001	-1053.351196289063	-208.7696533203126	53.02556610107423	-1071.979858398438	-217.2527923583985	58.7255210876465	-1119.878295898438	-263.6481323242188	42.19641876220704	-1165.6845703125	-410.0534667968751	549.3052368164064	-692.7487792968751	-345.0495605468751	556.5172119140626	-690.5604248046876	-334.0465087890626	583.6441650390626	-710.6292114257814	-289.1951293945313	495.9595031738282	-677.8496704101564	-174.7029724121094	413.8356933593751	-693.0157470703126	-140.994873046875	410.948944091797	-810.7857666015627	-160.5470733642578	274.6588134765626	-759.1336059570314	-242.9688873291016	225.6378326416016	-704.1649169921876	-213.0153503417969	209.6729583740235	-736.2219238281251	-240.9177551269532	174.415756225586	-777.6072998046877	-354.2289428710938	89.52302551269533	-743.0114135742189	-314.1823425292969	105.4787750244141	-823.832214355469	-406.7651977539064	50.7270851135254	-800.7417602539065	-196.8788452148438	58.96662521362306	-773.305603027344	-205.3137512207032	59.85499954223634	-732.2538452148439	-246.4549713134766	36.14724349975587	-684.9084472656251	
628	3.135	58.54576492309572	1192.347290039063	-887.1211547851565	-106.7386245727539	1110.507934570313	-969.8897705078127	-67.19437408447267	1125.872192382813	-813.575866699219	-186.032211303711	1047.082397460938	-913.077087402344	-412.8485107421876	827.914245605469	-913.3059082031252	-104.3194198608399	915.7239990234377	-910.303649902344	-93.91344451904298	966.7148437500002	-1060.900512695313	-195.192123413086	876.0351562500002	-1241.361694335938	-201.5433197021485	828.6175537109377	-1227.226196289063	-230.8753051757813	828.6796875000002	-1280.458129882813	-287.4013671875001	764.6414794921876	-1304.504028320313	-353.9254760742188	823.2714843750002	-1280.316162109375	-444.7706604003907	662.1431274414064	-1133.656982421875	-413.7020263671876	599.9538574218751	-1163.962280273438	-410.043182373047	656.8833618164064	-1080.984252929688	-105.9817428588867	969.0647583007815	-756.3255615234376	-224.6573791503907	905.7882080078127	-586.4467773437501	-234.9994201660157	856.1965942382815	-589.0886230468751	-270.4273071289063	872.8277587890627	-542.9837036132814	-320.4725036621094	825.4617309570315	-513.7041625976564	-394.7407226562501	863.135925292969	-538.0903930664064	-411.3348999023439	626.4415283203126	-653.0465698242189	-443.0381469726564	677.6348876953126	-699.3183593750001	-397.2845764160157	667.6839599609376	-746.3376464843751	-390.9356689453126	616.2365722656251	-1026.83740234375	-390.9395141601564	639.9613647460939	-788.9691162109377	-497.120086669922	745.7227172851564	-913.3121337890627	-523.1969604492189	724.3896484375001	-938.6871337890627	-522.0562133789064	726.9155883789064	-882.7233886718752	-373.4672851562501	529.9679565429689	-1133.293823242188	-291.1784057617188	518.6231079101564	-1145.310668945313	-269.4660644531251	554.4767456054689	-1117.232788085938	-260.2703247070313	468.8103332519532	-1156.042114257813	-182.1621398925782	410.2720642089845	-1154.033325195313	-137.7738647460938	402.1102905273439	-1030.848388671875	-149.3021850585938	286.1196899414063	-1111.784790039063	-224.254379272461	271.1009826660157	-1156.499267578125	-192.613754272461	252.507553100586	-1135.400634765625	-232.6846771240235	188.7123718261719	-1101.255493164063	-367.4864196777344	91.72898101806642	-1107.582275390625	-325.8643188476563	100.2069396972657	-1026.625244140625	-421.284149169922	50.24250411987306	-1053.373046875	-208.7608337402344	53.00094223022462	-1071.948852539063	-216.7716217041016	58.995418548584	-1119.984619140625	-263.5245666503907	42.40581130981446	-1165.74462890625	-410.0118713378907	549.3809814453126	-692.7773437500001	-344.9931335449219	556.5927734375001	-690.5386352539064	-334.0126342773438	583.7345581054689	-710.6510009765626	-289.1735534667969	495.9641723632814	-677.8447265625001	-174.6731262207032	413.8205871582032	-693.0598754882814	-141.040267944336	411.0213317871095	-810.8266601562502	-160.5540466308594	274.6674499511719	-759.1340332031251	-242.9242858886719	225.6662139892579	-704.1398925781251	-213.0460510253907	209.6545410156251	-736.2504272460939	-239.4320831298829	174.2012023925782	-777.0617675781252	-354.1969909667969	89.56611633300783	-743.0251464843751	-314.2259521484376	105.4050674438477	-823.8733520507815	-406.7642822265626	50.71035385131837	-800.7261962890627	-196.902816772461	58.92888259887697	-773.3460693359377	-205.6265258789063	59.9952735900879	-732.2877807617189	-246.4441070556641	36.15390014648438	-684.9211425781251	
